<svg xmlns="http://www.w3.org/2000/svg" xmlns:xlink="http://www.w3.org/1999/xlink" width="88" zoomAndPan="magnify" viewBox="0 0 66 68.999997" height="92" preserveAspectRatio="xMidYMid meet" version="1.0"><defs><clipPath id="896c446b07"><path d="M 0 0 L 65.25 0 L 65.25 68.25 L 0 68.25 Z M 0 0 " clip-rule="nonzero"/></clipPath></defs><g clip-path="url(#896c446b07)"><path fill="#684127" d="M 32.695312 67.78125 C 32.066406 66.96875 30.8125 65.703125 29.988281 65.046875 C 27.75 63.269531 25.441406 62.074219 19.757812 59.75 C 14.042969 57.414062 11.179688 56.085938 8.800781 54.660156 C 5.738281 52.835938 3.453125 50.710938 2.03125 48.371094 C 0.0546875 45.113281 0 41.40625 1.871094 37.734375 C 2.460938 36.582031 2.808594 36.09375 4.738281 33.734375 C 7.355469 30.527344 8.007812 29.496094 8.371094 27.996094 C 8.46875 27.589844 8.601562 27.203125 8.667969 27.136719 C 8.828125 26.976562 9.207031 26.984375 9.570312 27.15625 C 9.855469 27.292969 9.871094 27.292969 9.996094 27.136719 C 10.664062 26.28125 11.4375 24.820312 11.667969 23.976562 C 11.8125 23.445312 11.8125 23.40625 11.667969 23.058594 C 11.546875 22.769531 11.503906 22.328125 11.453125 20.769531 C 11.386719 18.824219 11.382812 18.777344 10.792969 15.464844 C 10.410156 13.324219 10.390625 12.039062 10.707031 10.203125 C 10.976562 8.652344 11.476562 7.371094 12.300781 6.105469 C 12.777344 5.375 13.476562 4.601562 13.96875 4.261719 C 14.203125 4.097656 14.378906 3.847656 14.644531 3.3125 C 15.308594 1.96875 16.484375 1.066406 18.320312 0.492188 C 19.550781 0.105469 20.398438 0 21.9375 0.046875 C 23.121094 0.0820312 23.464844 0.125 24.328125 0.34375 C 26.503906 0.898438 29.910156 2.273438 33.085938 3.886719 C 34.671875 4.6875 35.277344 5.082031 35.9375 5.734375 C 37.324219 7.097656 37.824219 8.679688 37.242188 9.871094 C 36.894531 10.574219 35.210938 12.242188 35.480469 11.613281 C 35.621094 11.273438 35.613281 10.546875 35.460938 10.25 C 35.300781 9.945312 34.71875 9.578125 34.382812 9.578125 C 34.203125 9.578125 34.203125 9.605469 34.148438 11.863281 C 34.097656 14.164062 33.988281 15.601562 33.851562 15.847656 C 33.808594 15.921875 33.628906 16.078125 33.453125 16.199219 C 33.234375 16.347656 33.089844 16.53125 33.007812 16.761719 C 32.800781 17.355469 32.980469 17.882812 34.042969 19.832031 C 34.6875 21.007812 34.574219 21.410156 33.511719 21.738281 C 32.554688 22.035156 32.410156 22.203125 32.335938 23.117188 C 32.292969 23.691406 32.285156 23.703125 31.957031 23.890625 C 31.769531 23.992188 31.582031 24.097656 31.535156 24.117188 C 31.484375 24.140625 31.492188 24.179688 31.550781 24.222656 C 31.703125 24.332031 31.84375 24.765625 31.792969 24.964844 C 31.769531 25.0625 31.601562 25.261719 31.417969 25.410156 C 31.011719 25.734375 30.910156 26.054688 30.90625 27 C 30.90625 27.945312 30.675781 28.351562 29.964844 28.648438 C 29.445312 28.863281 28.851562 28.804688 27.082031 28.351562 C 24.808594 27.773438 24.199219 27.777344 23.46875 28.394531 C 23.316406 28.519531 22.828125 29.140625 22.378906 29.769531 C 21.929688 30.398438 21.339844 31.191406 21.074219 31.527344 C 20.527344 32.214844 20.515625 32.101562 21.1875 32.851562 C 23.851562 35.835938 27.253906 41.78125 29.480469 47.34375 C 30.769531 50.566406 31.628906 53.5625 32.25 56.984375 C 32.460938 58.152344 32.539062 58.433594 32.679688 58.535156 C 32.777344 58.605469 33.03125 58.820312 33.25 59.015625 L 33.648438 59.371094 L 34.007812 59.039062 C 34.710938 58.390625 35.921875 58.179688 36.679688 58.570312 C 36.832031 58.652344 36.972656 58.699219 36.992188 58.683594 C 37.007812 58.664062 36.988281 58.425781 36.941406 58.152344 C 36.898438 57.878906 36.859375 57.460938 36.859375 57.222656 C 36.859375 56.828125 36.824219 56.746094 36.476562 56.34375 C 35.375 55.058594 34.746094 52.535156 35.089844 50.78125 C 35.476562 48.832031 36.785156 47.125 38.992188 45.707031 C 39.527344 45.363281 40.199219 44.929688 40.484375 44.746094 C 41.144531 44.320312 41.546875 43.734375 42.570312 41.726562 C 42.992188 40.898438 43.527344 39.9375 43.757812 39.59375 C 44.59375 38.355469 45.050781 37.042969 44.960938 36.152344 C 44.882812 35.394531 44.605469 34.726562 43.261719 32.039062 C 41.511719 28.539062 41.554688 28.574219 39.417969 28.78125 C 37.722656 28.949219 36.722656 28.9375 36.355469 28.742188 C 35.773438 28.4375 35.433594 27.992188 35.433594 27.539062 C 35.433594 27.40625 35.527344 27.03125 35.640625 26.703125 C 35.882812 26.011719 35.835938 25.734375 35.429688 25.433594 C 35.152344 25.226562 35.121094 25.03125 35.3125 24.660156 C 35.433594 24.425781 35.433594 24.398438 35.273438 24.265625 C 34.980469 24.015625 34.976562 23.734375 35.261719 23.375 C 35.675781 22.855469 35.601562 22.535156 34.921875 21.898438 C 34.269531 21.289062 34.339844 21.074219 35.464844 20.195312 C 36.914062 19.0625 37.152344 18.636719 37.21875 17.082031 C 37.265625 15.960938 37.378906 15.394531 37.746094 14.480469 C 37.933594 14.007812 37.945312 13.914062 37.859375 13.570312 C 37.691406 12.910156 37.785156 12.039062 38.09375 11.421875 C 38.800781 9.988281 40.359375 9.078125 42.683594 8.746094 C 43.535156 8.625 45.898438 8.640625 46.917969 8.777344 C 49.21875 9.089844 51.742188 9.917969 53.835938 11.050781 L 54.507812 11.414062 L 54.65625 11.054688 C 54.738281 10.855469 54.917969 10.585938 55.058594 10.453125 C 55.308594 10.210938 55.328125 10.207031 56.25 10.210938 C 56.988281 10.210938 57.320312 10.253906 57.816406 10.40625 C 59.375 10.886719 60.246094 11.699219 60.246094 12.675781 L 60.246094 13.015625 L 60.605469 12.828125 C 60.890625 12.675781 61.097656 12.640625 61.679688 12.640625 C 62.332031 12.640625 62.433594 12.664062 62.808594 12.894531 C 63.269531 13.179688 63.628906 13.734375 63.722656 14.304688 C 63.847656 15.09375 63.46875 17.242188 63.039062 18.160156 C 62.34375 19.65625 61.214844 20.335938 59.4375 20.34375 C 58.820312 20.34375 58.695312 20.3125 58.152344 20.046875 C 57.585938 19.765625 57.5625 19.761719 57.765625 19.964844 C 57.886719 20.082031 58.636719 20.503906 59.429688 20.894531 C 60.777344 21.558594 60.894531 21.636719 61.148438 22.015625 C 61.386719 22.375 61.421875 22.492188 61.421875 22.980469 C 61.421875 23.289062 61.386719 23.664062 61.34375 23.8125 C 61.285156 24.011719 61.296875 24.183594 61.382812 24.433594 C 61.894531 25.878906 61.601562 27.1875 60.542969 28.175781 C 59.636719 29.023438 58.355469 29.53125 57.132812 29.53125 C 56.59375 29.53125 56.558594 29.542969 56.558594 29.71875 C 56.558594 29.824219 56.535156 30.003906 56.503906 30.117188 C 56.460938 30.289062 56.472656 30.308594 56.5625 30.222656 C 56.625 30.164062 56.820312 30.117188 56.996094 30.117188 C 57.542969 30.117188 57.78125 30.53125 57.46875 30.925781 C 57.34375 31.082031 56.816406 31.308594 56.207031 31.464844 C 55.546875 31.632812 55.585938 31.671875 55.511719 30.691406 C 55.464844 30.09375 55.480469 29.945312 55.621094 29.679688 L 55.785156 29.371094 L 55.5 29.277344 C 55.113281 29.148438 54.714844 28.800781 54.578125 28.46875 C 54.316406 27.84375 54.519531 26.847656 55.042969 26.1875 C 55.265625 25.90625 56.011719 25.339844 56.160156 25.339844 C 56.1875 25.339844 55.988281 25.550781 55.71875 25.8125 C 55.085938 26.414062 54.851562 26.886719 54.851562 27.558594 C 54.855469 28.628906 55.507812 29.195312 56.753906 29.195312 C 57.230469 29.195312 57.957031 29.058594 58.019531 28.953125 C 58.035156 28.925781 57.78125 28.898438 57.449219 28.894531 C 57.117188 28.886719 56.628906 28.820312 56.367188 28.742188 C 55.976562 28.628906 55.851562 28.546875 55.6875 28.292969 C 55.394531 27.84375 55.347656 27.507812 55.507812 27.023438 C 55.769531 26.242188 56.664062 25.660156 57.390625 25.804688 C 57.648438 25.855469 57.667969 25.871094 57.523438 25.929688 C 57.429688 25.96875 57.210938 26.023438 57.039062 26.050781 C 56.605469 26.121094 56.007812 26.695312 55.929688 27.113281 C 55.851562 27.527344 56.066406 27.96875 56.429688 28.140625 C 56.84375 28.335938 57.785156 28.316406 58.371094 28.09375 C 59.328125 27.738281 60.027344 26.800781 60.027344 25.886719 C 60.023438 25.070312 59.652344 24.503906 58.34375 23.324219 L 57.625 22.671875 L 57.289062 23.1875 C 56.566406 24.308594 55.648438 24.964844 53.28125 26.058594 C 52.535156 26.402344 51.6875 26.84375 51.394531 27.035156 C 50.574219 27.574219 50.464844 27.945312 50.773438 29.152344 C 51.09375 30.40625 51.78125 31.433594 54.167969 34.226562 C 56.925781 37.457031 57.6875 38.992188 58.1875 42.328125 C 58.535156 44.632812 58.515625 46.605469 58.109375 50.65625 C 57.996094 51.785156 57.878906 53.097656 57.847656 53.574219 L 57.789062 54.4375 L 57.214844 54.777344 C 56.449219 55.234375 54.867188 55.917969 51.8125 57.113281 C 43.53125 60.351562 39.867188 62.183594 36.859375 64.570312 C 35.769531 65.4375 34.464844 66.746094 33.804688 67.632812 C 33.527344 68 33.28125 68.332031 33.253906 68.367188 C 33.222656 68.402344 32.972656 68.136719 32.695312 67.78125 Z M 34.121094 63.488281 C 34.238281 63.308594 34.765625 62.734375 35.292969 62.210938 C 36.382812 61.128906 36.609375 60.765625 36.609375 60.097656 C 36.609375 59.695312 36.574219 59.605469 36.351562 59.378906 C 36.132812 59.160156 36.027344 59.121094 35.675781 59.121094 C 35.117188 59.121094 34.761719 59.285156 34.234375 59.785156 L 33.792969 60.203125 L 33.253906 59.738281 C 32.285156 58.910156 31.453125 58.667969 30.84375 59.039062 C 30.410156 59.300781 30.21875 59.675781 30.269531 60.15625 C 30.355469 60.945312 30.988281 61.679688 32.542969 62.789062 C 33.003906 63.121094 33.492188 63.484375 33.632812 63.601562 C 33.769531 63.714844 33.886719 63.8125 33.894531 63.8125 C 33.898438 63.816406 34 63.667969 34.121094 63.488281 Z M 59.925781 27.507812 C 60.5625 26.664062 60.976562 25.621094 60.855469 25.164062 C 60.828125 25.050781 60.71875 25.238281 60.5 25.777344 C 60.039062 26.921875 59.613281 27.730469 59.261719 28.125 L 58.949219 28.476562 L 59.269531 28.21875 C 59.445312 28.078125 59.742188 27.757812 59.925781 27.507812 Z M 60.769531 23.0625 C 60.578125 22.628906 60.203125 22.28125 59.433594 21.835938 C 58.796875 21.464844 57.851562 20.980469 57.765625 20.980469 C 57.734375 20.980469 58.164062 21.28125 58.722656 21.648438 C 59.277344 22.019531 59.992188 22.578125 60.304688 22.890625 C 60.617188 23.207031 60.890625 23.453125 60.902344 23.445312 C 60.917969 23.433594 60.859375 23.261719 60.769531 23.0625 Z M 61.980469 17.894531 C 62.464844 17.511719 62.789062 17.0625 63.058594 16.398438 C 63.304688 15.804688 63.316406 15.375 63.109375 14.707031 C 62.921875 14.109375 62.667969 13.730469 62.339844 13.558594 C 62.035156 13.402344 61.910156 13.402344 61.523438 13.566406 L 61.210938 13.699219 L 61.464844 13.882812 C 62.085938 14.332031 62.398438 14.890625 62.480469 15.695312 C 62.550781 16.371094 62.351562 16.996094 61.84375 17.667969 C 61.613281 17.96875 61.460938 18.214844 61.5 18.214844 C 61.539062 18.214844 61.757812 18.070312 61.980469 17.894531 Z M 60.46875 38.449219 C 60.253906 38.238281 60.054688 37.96875 60.023438 37.851562 C 59.914062 37.410156 60.34375 37.171875 60.664062 37.492188 C 60.8125 37.640625 60.84375 37.648438 60.886719 37.535156 C 60.957031 37.351562 61.230469 37.222656 61.425781 37.285156 C 61.660156 37.359375 61.710938 37.679688 61.542969 38.007812 C 61.363281 38.367188 61.011719 38.835938 60.925781 38.835938 C 60.890625 38.835938 60.6875 38.660156 60.46875 38.449219 Z M 57.9375 33.398438 C 57.613281 33.199219 57.230469 32.746094 57.230469 32.558594 C 57.230469 32.234375 57.566406 32.113281 57.824219 32.34375 C 57.957031 32.464844 57.972656 32.460938 58.023438 32.304688 C 58.054688 32.207031 58.15625 32.089844 58.246094 32.039062 C 58.472656 31.917969 58.824219 32.144531 58.824219 32.410156 C 58.824219 32.632812 58.402344 33.492188 58.277344 33.53125 C 58.230469 33.542969 58.078125 33.484375 57.9375 33.398438 Z M 59.160156 32.164062 C 58.847656 31.875 58.738281 31.710938 58.738281 31.535156 C 58.738281 31.238281 59 31.140625 59.285156 31.328125 C 59.53125 31.488281 59.578125 31.492188 59.578125 31.34375 C 59.578125 30.964844 60.191406 30.96875 60.285156 31.347656 C 60.355469 31.621094 59.941406 32.492188 59.722656 32.53125 C 59.644531 32.546875 59.398438 32.386719 59.160156 32.164062 Z M 61.757812 28.660156 C 61.589844 27.476562 61.808594 26.847656 62.390625 26.847656 C 62.769531 26.847656 62.96875 27.136719 62.90625 27.605469 C 62.863281 27.917969 62.9375 28.042969 63.054688 27.855469 C 63.085938 27.808594 63.273438 27.769531 63.480469 27.769531 C 63.886719 27.769531 64.1875 27.980469 64.1875 28.265625 C 64.1875 28.648438 63.257812 29.140625 62.207031 29.316406 L 61.859375 29.375 Z M 3.578125 25.4375 C 2.546875 25.066406 2.15625 24.761719 2.15625 24.34375 C 2.15625 24.125 2.460938 23.914062 2.78125 23.914062 C 2.925781 23.914062 3.121094 23.972656 3.226562 24.042969 C 3.410156 24.175781 3.410156 24.171875 3.410156 23.800781 C 3.410156 23.492188 3.453125 23.390625 3.632812 23.25 C 3.753906 23.152344 3.921875 23.074219 4.003906 23.074219 C 4.207031 23.074219 4.484375 23.445312 4.554688 23.8125 C 4.609375 24.117188 4.367188 25.679688 4.261719 25.671875 C 4.234375 25.667969 3.925781 25.5625 3.578125 25.4375 Z M 7.011719 24.816406 C 6.90625 24.574219 6.804688 24.1875 6.785156 23.957031 C 6.753906 23.605469 6.777344 23.511719 6.929688 23.371094 C 7.097656 23.222656 7.128906 23.21875 7.335938 23.332031 C 7.488281 23.417969 7.578125 23.554688 7.613281 23.75 C 7.640625 23.910156 7.671875 23.996094 7.675781 23.945312 C 7.695312 23.769531 8.175781 23.628906 8.402344 23.734375 C 8.878906 23.949219 8.527344 24.535156 7.628906 25.023438 L 7.203125 25.253906 Z M 63.476562 24.992188 C 62.824219 24.84375 62.109375 24.574219 61.984375 24.433594 C 61.738281 24.152344 61.730469 23.933594 61.964844 23.699219 C 62.183594 23.480469 62.40625 23.457031 62.769531 23.613281 C 62.875 23.660156 62.894531 23.625 62.867188 23.433594 C 62.84375 23.28125 62.894531 23.121094 63.011719 22.96875 C 63.324219 22.574219 63.714844 22.707031 63.9375 23.285156 C 64.039062 23.546875 63.976562 25.097656 63.863281 25.078125 C 63.835938 25.074219 63.660156 25.035156 63.476562 24.992188 Z M 62.792969 21.140625 C 62.847656 20.273438 62.910156 20.070312 63.207031 19.742188 C 63.574219 19.339844 64.148438 19.648438 64.082031 20.214844 C 64.0625 20.382812 64.019531 20.582031 63.988281 20.65625 C 63.933594 20.777344 63.964844 20.78125 64.257812 20.703125 C 65.007812 20.503906 65.429688 21.292969 64.78125 21.675781 C 64.582031 21.792969 63.488281 21.964844 62.8125 21.984375 C 62.769531 21.984375 62.761719 21.628906 62.792969 21.140625 Z M 3.746094 21.523438 C 2.75 21.242188 2.320312 20.953125 2.320312 20.558594 C 2.320312 20.15625 2.804688 19.953125 3.242188 20.171875 L 3.5 20.300781 L 3.445312 20.011719 C 3.351562 19.511719 3.773438 19.09375 4.164062 19.300781 C 4.5 19.480469 4.613281 19.863281 4.5625 20.640625 C 4.535156 21.035156 4.484375 21.433594 4.445312 21.53125 L 4.375 21.703125 Z M 6.546875 14.042969 C 5.472656 13.324219 5.089844 12.699219 5.527344 12.394531 C 5.792969 12.203125 6.042969 12.230469 6.339844 12.480469 C 6.574219 12.675781 6.597656 12.679688 6.597656 12.535156 C 6.597656 12.449219 6.671875 12.296875 6.761719 12.199219 C 7.246094 11.683594 7.835938 12.050781 7.714844 12.792969 C 7.664062 13.105469 7.101562 14.203125 6.972656 14.246094 C 6.925781 14.261719 6.734375 14.167969 6.546875 14.042969 Z M 6.546875 14.042969 " fill-opacity="1" fill-rule="nonzero"/><path fill="#684127" d="M 32.695312 67.78125 C 32.066406 66.96875 30.8125 65.703125 29.988281 65.046875 C 27.75 63.269531 25.441406 62.074219 19.757812 59.75 C 14.042969 57.414062 11.179688 56.085938 8.800781 54.660156 C 5.738281 52.835938 3.453125 50.710938 2.03125 48.371094 C 0.0546875 45.113281 0 41.40625 1.871094 37.734375 C 2.460938 36.582031 2.808594 36.09375 4.738281 33.734375 C 7.355469 30.527344 8.007812 29.496094 8.371094 27.996094 C 8.46875 27.589844 8.601562 27.203125 8.667969 27.136719 C 8.828125 26.976562 9.207031 26.984375 9.570312 27.15625 C 9.855469 27.292969 9.871094 27.292969 9.996094 27.136719 C 10.664062 26.28125 11.4375 24.820312 11.667969 23.976562 C 11.8125 23.445312 11.8125 23.40625 11.667969 23.058594 C 11.546875 22.769531 11.503906 22.328125 11.453125 20.769531 C 11.386719 18.824219 11.382812 18.777344 10.792969 15.464844 C 10.410156 13.324219 10.390625 12.039062 10.707031 10.203125 C 10.976562 8.652344 11.476562 7.371094 12.300781 6.105469 C 12.777344 5.375 13.476562 4.601562 13.96875 4.261719 C 14.203125 4.097656 14.378906 3.847656 14.644531 3.3125 C 15.308594 1.96875 16.484375 1.066406 18.320312 0.492188 C 19.550781 0.105469 20.398438 0 21.9375 0.046875 C 23.121094 0.0820312 23.464844 0.125 24.328125 0.34375 C 26.503906 0.898438 29.910156 2.273438 33.085938 3.886719 C 34.671875 4.6875 35.277344 5.082031 35.9375 5.734375 C 37.324219 7.097656 37.824219 8.679688 37.242188 9.871094 C 36.894531 10.574219 35.210938 12.242188 35.480469 11.613281 C 35.621094 11.273438 35.613281 10.546875 35.460938 10.25 C 35.300781 9.945312 34.71875 9.578125 34.382812 9.578125 C 34.203125 9.578125 34.203125 9.605469 34.148438 11.863281 C 34.097656 14.164062 33.988281 15.601562 33.851562 15.847656 C 33.808594 15.921875 33.628906 16.078125 33.453125 16.199219 C 33.234375 16.347656 33.089844 16.53125 33.007812 16.761719 C 32.800781 17.355469 32.980469 17.882812 34.042969 19.832031 C 34.6875 21.007812 34.574219 21.410156 33.511719 21.738281 C 32.554688 22.035156 32.410156 22.203125 32.335938 23.117188 C 32.292969 23.691406 32.285156 23.703125 31.957031 23.890625 C 31.769531 23.992188 31.582031 24.097656 31.535156 24.117188 C 31.484375 24.140625 31.492188 24.179688 31.550781 24.222656 C 31.703125 24.332031 31.84375 24.765625 31.792969 24.964844 C 31.769531 25.0625 31.601562 25.261719 31.417969 25.410156 C 31.011719 25.734375 30.910156 26.054688 30.90625 27 C 30.90625 27.945312 30.675781 28.351562 29.964844 28.648438 C 29.445312 28.863281 28.851562 28.804688 27.082031 28.351562 C 24.808594 27.773438 24.199219 27.777344 23.46875 28.394531 C 23.316406 28.519531 22.828125 29.140625 22.378906 29.769531 C 21.929688 30.398438 21.339844 31.191406 21.074219 31.527344 C 20.527344 32.214844 20.515625 32.101562 21.1875 32.851562 C 23.851562 35.835938 27.253906 41.78125 29.480469 47.34375 C 30.769531 50.566406 31.628906 53.5625 32.25 56.984375 C 32.460938 58.152344 32.539062 58.433594 32.679688 58.535156 C 32.777344 58.605469 33.03125 58.820312 33.25 59.015625 L 33.648438 59.371094 L 34.007812 59.039062 C 34.710938 58.390625 35.921875 58.179688 36.679688 58.570312 C 36.832031 58.652344 36.972656 58.699219 36.992188 58.683594 C 37.007812 58.664062 36.988281 58.425781 36.941406 58.152344 C 36.898438 57.878906 36.859375 57.460938 36.859375 57.222656 C 36.859375 56.828125 36.824219 56.746094 36.476562 56.34375 C 35.375 55.058594 34.746094 52.535156 35.089844 50.78125 C 35.476562 48.832031 36.785156 47.125 38.992188 45.707031 C 39.527344 45.363281 40.199219 44.929688 40.484375 44.746094 C 41.144531 44.320312 41.546875 43.734375 42.570312 41.726562 C 42.992188 40.898438 43.527344 39.9375 43.757812 39.59375 C 44.59375 38.355469 45.050781 37.042969 44.960938 36.152344 C 44.882812 35.394531 44.605469 34.726562 43.261719 32.039062 C 41.511719 28.539062 41.554688 28.574219 39.417969 28.78125 C 37.722656 28.949219 36.722656 28.9375 36.355469 28.742188 C 35.773438 28.4375 35.433594 27.992188 35.433594 27.539062 C 35.433594 27.40625 35.527344 27.03125 35.640625 26.703125 C 35.882812 26.011719 35.835938 25.734375 35.429688 25.433594 C 35.152344 25.226562 35.121094 25.03125 35.3125 24.660156 C 35.433594 24.425781 35.433594 24.398438 35.273438 24.265625 C 34.980469 24.015625 34.976562 23.734375 35.261719 23.375 C 35.675781 22.855469 35.601562 22.535156 34.921875 21.898438 C 34.269531 21.289062 34.339844 21.074219 35.464844 20.195312 C 36.914062 19.0625 37.152344 18.636719 37.21875 17.082031 C 37.265625 15.960938 37.378906 15.394531 37.746094 14.480469 C 37.933594 14.007812 37.945312 13.914062 37.859375 13.570312 C 37.691406 12.910156 37.785156 12.039062 38.09375 11.421875 C 38.800781 9.988281 40.359375 9.078125 42.683594 8.746094 C 43.535156 8.625 45.898438 8.640625 46.917969 8.777344 C 49.21875 9.089844 51.742188 9.917969 53.835938 11.050781 L 54.507812 11.414062 L 54.65625 11.054688 C 54.738281 10.855469 54.917969 10.585938 55.058594 10.453125 C 55.308594 10.210938 55.328125 10.207031 56.25 10.210938 C 56.988281 10.210938 57.320312 10.253906 57.816406 10.40625 C 59.375 10.886719 60.246094 11.699219 60.246094 12.675781 L 60.246094 13.015625 L 60.605469 12.828125 C 60.890625 12.675781 61.097656 12.640625 61.679688 12.640625 C 62.332031 12.640625 62.433594 12.664062 62.808594 12.894531 C 63.269531 13.179688 63.628906 13.734375 63.722656 14.304688 C 63.847656 15.09375 63.46875 17.242188 63.039062 18.160156 C 62.34375 19.65625 61.214844 20.335938 59.4375 20.34375 C 58.820312 20.34375 58.695312 20.3125 58.152344 20.046875 C 57.585938 19.765625 57.5625 19.761719 57.765625 19.964844 C 57.886719 20.082031 58.636719 20.503906 59.429688 20.894531 C 60.777344 21.558594 60.894531 21.636719 61.148438 22.015625 C 61.386719 22.375 61.421875 22.492188 61.421875 22.980469 C 61.421875 23.289062 61.386719 23.664062 61.34375 23.8125 C 61.285156 24.011719 61.296875 24.183594 61.382812 24.433594 C 61.894531 25.878906 61.601562 27.1875 60.542969 28.175781 C 59.636719 29.023438 58.355469 29.53125 57.132812 29.53125 C 56.59375 29.53125 56.558594 29.542969 56.558594 29.71875 C 56.558594 29.824219 56.535156 30.003906 56.503906 30.117188 C 56.460938 30.289062 56.472656 30.308594 56.5625 30.222656 C 56.625 30.164062 56.820312 30.117188 56.996094 30.117188 C 57.542969 30.117188 57.78125 30.53125 57.46875 30.925781 C 57.34375 31.082031 56.816406 31.308594 56.207031 31.464844 C 55.546875 31.632812 55.585938 31.671875 55.511719 30.691406 C 55.464844 30.09375 55.480469 29.945312 55.621094 29.679688 L 55.785156 29.371094 L 55.5 29.277344 C 55.113281 29.148438 54.714844 28.800781 54.578125 28.46875 C 54.316406 27.84375 54.519531 26.847656 55.042969 26.1875 C 55.265625 25.90625 56.011719 25.339844 56.160156 25.339844 C 56.1875 25.339844 55.988281 25.550781 55.71875 25.8125 C 55.085938 26.414062 54.851562 26.886719 54.851562 27.558594 C 54.855469 28.628906 55.507812 29.195312 56.753906 29.195312 C 57.230469 29.195312 57.957031 29.058594 58.019531 28.953125 C 58.035156 28.925781 57.78125 28.898438 57.449219 28.894531 C 57.117188 28.886719 56.628906 28.820312 56.367188 28.742188 C 55.976562 28.628906 55.851562 28.546875 55.6875 28.292969 C 55.394531 27.84375 55.347656 27.507812 55.507812 27.023438 C 55.769531 26.242188 56.664062 25.660156 57.390625 25.804688 C 57.648438 25.855469 57.667969 25.871094 57.523438 25.929688 C 57.429688 25.96875 57.210938 26.023438 57.039062 26.050781 C 56.605469 26.121094 56.007812 26.695312 55.929688 27.113281 C 55.851562 27.527344 56.066406 27.96875 56.429688 28.140625 C 56.84375 28.335938 57.785156 28.316406 58.371094 28.09375 C 59.328125 27.738281 60.027344 26.800781 60.027344 25.886719 C 60.023438 25.070312 59.652344 24.503906 58.34375 23.324219 L 57.625 22.671875 L 57.289062 23.1875 C 56.566406 24.308594 55.648438 24.964844 53.28125 26.058594 C 52.535156 26.402344 51.6875 26.84375 51.394531 27.035156 C 50.574219 27.574219 50.464844 27.945312 50.773438 29.152344 C 51.09375 30.40625 51.78125 31.433594 54.167969 34.226562 C 56.925781 37.457031 57.6875 38.992188 58.1875 42.328125 C 58.535156 44.632812 58.515625 46.605469 58.109375 50.65625 C 57.996094 51.785156 57.878906 53.097656 57.847656 53.574219 L 57.789062 54.4375 L 57.214844 54.777344 C 56.449219 55.234375 54.867188 55.917969 51.8125 57.113281 C 43.53125 60.351562 39.867188 62.183594 36.859375 64.570312 C 35.769531 65.4375 34.464844 66.746094 33.804688 67.632812 C 33.527344 68 33.28125 68.332031 33.253906 68.367188 C 33.222656 68.402344 32.972656 68.136719 32.695312 67.78125 Z M 34.121094 63.488281 C 34.238281 63.308594 34.765625 62.734375 35.292969 62.210938 C 36.382812 61.128906 36.609375 60.765625 36.609375 60.097656 C 36.609375 59.695312 36.574219 59.605469 36.351562 59.378906 C 36.132812 59.160156 36.027344 59.121094 35.675781 59.121094 C 35.117188 59.121094 34.761719 59.285156 34.234375 59.785156 L 33.792969 60.203125 L 33.253906 59.738281 C 32.285156 58.910156 31.453125 58.667969 30.84375 59.039062 C 30.410156 59.300781 30.21875 59.675781 30.269531 60.15625 C 30.355469 60.945312 30.988281 61.679688 32.542969 62.789062 C 33.003906 63.121094 33.492188 63.484375 33.632812 63.601562 C 33.769531 63.714844 33.886719 63.8125 33.894531 63.8125 C 33.898438 63.816406 34 63.667969 34.121094 63.488281 Z M 59.925781 27.507812 C 60.5625 26.664062 60.976562 25.621094 60.855469 25.164062 C 60.828125 25.050781 60.71875 25.238281 60.5 25.777344 C 60.039062 26.921875 59.613281 27.730469 59.261719 28.125 L 58.949219 28.476562 L 59.269531 28.21875 C 59.445312 28.078125 59.742188 27.757812 59.925781 27.507812 Z M 60.769531 23.0625 C 60.578125 22.628906 60.203125 22.28125 59.433594 21.835938 C 58.796875 21.464844 57.851562 20.980469 57.765625 20.980469 C 57.734375 20.980469 58.164062 21.28125 58.722656 21.648438 C 59.277344 22.019531 59.992188 22.578125 60.304688 22.890625 C 60.617188 23.207031 60.890625 23.453125 60.902344 23.445312 C 60.917969 23.433594 60.859375 23.261719 60.769531 23.0625 Z M 61.980469 17.894531 C 62.464844 17.511719 62.789062 17.0625 63.058594 16.398438 C 63.304688 15.804688 63.316406 15.375 63.109375 14.707031 C 62.921875 14.109375 62.667969 13.730469 62.339844 13.558594 C 62.035156 13.402344 61.910156 13.402344 61.523438 13.566406 L 61.210938 13.699219 L 61.464844 13.882812 C 62.085938 14.332031 62.398438 14.890625 62.480469 15.695312 C 62.550781 16.371094 62.351562 16.996094 61.84375 17.667969 C 61.613281 17.96875 61.460938 18.214844 61.5 18.214844 C 61.539062 18.214844 61.757812 18.070312 61.980469 17.894531 Z M 60.46875 38.449219 C 60.253906 38.238281 60.054688 37.96875 60.023438 37.851562 C 59.914062 37.410156 60.34375 37.171875 60.664062 37.492188 C 60.8125 37.640625 60.84375 37.648438 60.886719 37.535156 C 60.957031 37.351562 61.230469 37.222656 61.425781 37.285156 C 61.660156 37.359375 61.710938 37.679688 61.542969 38.007812 C 61.363281 38.367188 61.011719 38.835938 60.925781 38.835938 C 60.890625 38.835938 60.6875 38.660156 60.46875 38.449219 Z M 57.9375 33.398438 C 57.613281 33.199219 57.230469 32.746094 57.230469 32.558594 C 57.230469 32.234375 57.566406 32.113281 57.824219 32.34375 C 57.957031 32.464844 57.972656 32.460938 58.023438 32.304688 C 58.054688 32.207031 58.15625 32.089844 58.246094 32.039062 C 58.472656 31.917969 58.824219 32.144531 58.824219 32.410156 C 58.824219 32.632812 58.402344 33.492188 58.277344 33.53125 C 58.230469 33.542969 58.078125 33.484375 57.9375 33.398438 Z M 59.160156 32.164062 C 58.847656 31.875 58.738281 31.710938 58.738281 31.535156 C 58.738281 31.238281 59 31.140625 59.285156 31.328125 C 59.53125 31.488281 59.578125 31.492188 59.578125 31.34375 C 59.578125 30.964844 60.191406 30.96875 60.285156 31.347656 C 60.355469 31.621094 59.941406 32.492188 59.722656 32.53125 C 59.644531 32.546875 59.398438 32.386719 59.160156 32.164062 Z M 61.757812 28.660156 C 61.589844 27.476562 61.808594 26.847656 62.390625 26.847656 C 62.769531 26.847656 62.96875 27.136719 62.90625 27.605469 C 62.863281 27.917969 62.9375 28.042969 63.054688 27.855469 C 63.085938 27.808594 63.273438 27.769531 63.480469 27.769531 C 63.886719 27.769531 64.1875 27.980469 64.1875 28.265625 C 64.1875 28.648438 63.257812 29.140625 62.207031 29.316406 L 61.859375 29.375 Z M 3.578125 25.4375 C 2.546875 25.066406 2.15625 24.761719 2.15625 24.34375 C 2.15625 24.125 2.460938 23.914062 2.78125 23.914062 C 2.925781 23.914062 3.121094 23.972656 3.226562 24.042969 C 3.410156 24.175781 3.410156 24.171875 3.410156 23.800781 C 3.410156 23.492188 3.453125 23.390625 3.632812 23.25 C 3.753906 23.152344 3.921875 23.074219 4.003906 23.074219 C 4.207031 23.074219 4.484375 23.445312 4.554688 23.8125 C 4.609375 24.117188 4.367188 25.679688 4.261719 25.671875 C 4.234375 25.667969 3.925781 25.5625 3.578125 25.4375 Z M 7.011719 24.816406 C 6.90625 24.574219 6.804688 24.1875 6.785156 23.957031 C 6.753906 23.605469 6.777344 23.511719 6.929688 23.371094 C 7.097656 23.222656 7.128906 23.21875 7.335938 23.332031 C 7.488281 23.417969 7.578125 23.554688 7.613281 23.75 C 7.640625 23.910156 7.671875 23.996094 7.675781 23.945312 C 7.695312 23.769531 8.175781 23.628906 8.402344 23.734375 C 8.878906 23.949219 8.527344 24.535156 7.628906 25.023438 L 7.203125 25.253906 Z M 63.476562 24.992188 C 62.824219 24.84375 62.109375 24.574219 61.984375 24.433594 C 61.738281 24.152344 61.730469 23.933594 61.964844 23.699219 C 62.183594 23.480469 62.40625 23.457031 62.769531 23.613281 C 62.875 23.660156 62.894531 23.625 62.867188 23.433594 C 62.84375 23.28125 62.894531 23.121094 63.011719 22.96875 C 63.324219 22.574219 63.714844 22.707031 63.9375 23.285156 C 64.039062 23.546875 63.976562 25.097656 63.863281 25.078125 C 63.835938 25.074219 63.660156 25.035156 63.476562 24.992188 Z M 62.792969 21.140625 C 62.847656 20.273438 62.910156 20.070312 63.207031 19.742188 C 63.574219 19.339844 64.148438 19.648438 64.082031 20.214844 C 64.0625 20.382812 64.019531 20.582031 63.988281 20.65625 C 63.933594 20.777344 63.964844 20.78125 64.257812 20.703125 C 65.007812 20.503906 65.429688 21.292969 64.78125 21.675781 C 64.582031 21.792969 63.488281 21.964844 62.8125 21.984375 C 62.769531 21.984375 62.761719 21.628906 62.792969 21.140625 Z M 3.746094 21.523438 C 2.75 21.242188 2.320312 20.953125 2.320312 20.558594 C 2.320312 20.15625 2.804688 19.953125 3.242188 20.171875 L 3.5 20.300781 L 3.445312 20.011719 C 3.351562 19.511719 3.773438 19.09375 4.164062 19.300781 C 4.5 19.480469 4.613281 19.863281 4.5625 20.640625 C 4.535156 21.035156 4.484375 21.433594 4.445312 21.53125 L 4.375 21.703125 Z M 6.546875 14.042969 C 5.472656 13.324219 5.089844 12.699219 5.527344 12.394531 C 5.792969 12.203125 6.042969 12.230469 6.339844 12.480469 C 6.574219 12.675781 6.597656 12.679688 6.597656 12.535156 C 6.597656 12.449219 6.671875 12.296875 6.761719 12.199219 C 7.246094 11.683594 7.835938 12.050781 7.714844 12.792969 C 7.664062 13.105469 7.101562 14.203125 6.972656 14.246094 C 6.925781 14.261719 6.734375 14.167969 6.546875 14.042969 Z M 6.546875 14.042969 " fill-opacity="1" fill-rule="nonzero"/></g></svg>